<?xml version="1.0" encoding="utf-8"?>
<!-- Generator: Adobe Illustrator 21.0.1, SVG Export Plug-In . SVG Version: 6.00 Build 0)  -->
<svg version="1.1" id="Layer_1" xmlns="http://www.w3.org/2000/svg" xmlns:xlink="http://www.w3.org/1999/xlink" x="0px" y="0px"
	 viewBox="0 0 192 192" style="enable-background:new 0 0 192 192;" xml:space="preserve">
<style type="text/css">
	.st0{clip-path:url(#SVGID_2_);fill:#A29F9D;}
	.st1{clip-path:url(#SVGID_2_);fill:#54504F;}
	.st2{clip-path:url(#SVGID_2_);fill:#EF7648;}
</style>
<g>
	<defs>
		<circle id="SVGID_1_" cx="96" cy="96" r="96"/>
	</defs>
	<use xlink:href="#SVGID_1_"  style="overflow:visible;fill:#FFFFFF;"/>
	<clipPath id="SVGID_2_">
		<use xlink:href="#SVGID_1_"  style="overflow:visible;"/>
	</clipPath>
	<circle class="st0" cx="95.4" cy="99.9" r="41.4"/>
	<circle class="st0" cx="183.2" cy="63.1" r="76.9"/>
	<circle class="st1" cx="76.2" cy="100.7" r="5.1"/>
	<circle class="st1" cx="61.6" cy="130.4" r="9.3"/>
	<path class="st1" d="M183.5,112.3h-27.2c-7.5,0-13.7,6.2-13.7,13.7v3.4c0,7.5,6.2,13.7,13.7,13.7h27.2c7.5,0,13.7-6.2,13.7-13.7
		V126C197.2,118.4,191,112.3,183.5,112.3z"/>
	<path class="st1" d="M153.8,124.9l-18.5,10.9c-9,5.3-21.2,0.3-25.3-10.6L89,69.3c-3.1-8.2-0.4-17.1,6.5-21.2l0,0
		c6.8-4,15.8-2.2,21.5,4.3l39.5,45C164.3,106.2,162.9,119.5,153.8,124.9z"/>
	<path class="st0" d="M181.4,114.4h-23c-7.5,0-13.7,6.2-13.7,13.7v0c0,7.5,6.2,13.7,13.7,13.7h23c7.5,0,13.7-6.2,13.7-13.7v0
		C195.1,120.6,188.9,114.4,181.4,114.4z"/>
	<rect x="-13" y="139.8" class="st2" width="217.9" height="55"/>
</g>
</svg>
