<?xml version="1.0" encoding="utf-8"?>
<!-- Generator: Adobe Illustrator 21.0.1, SVG Export Plug-In . SVG Version: 6.00 Build 0)  -->
<svg version="1.1" id="Layer_1" xmlns="http://www.w3.org/2000/svg" xmlns:xlink="http://www.w3.org/1999/xlink" x="0px" y="0px"
	 viewBox="0 0 192 192" style="enable-background:new 0 0 192 192;" xml:space="preserve">
<style type="text/css">
	.st0{clip-path:url(#SVGID_2_);}
	.st1{fill:#A29F9D;}
	.st2{fill:#EF7648;}
	.st3{fill:#FFFFFF;}
</style>
<g>
	<defs>
		<circle id="SVGID_1_" cx="96" cy="96" r="96"/>
	</defs>
	<use xlink:href="#SVGID_1_"  style="overflow:visible;fill:#FFFFFF;"/>
	<clipPath id="SVGID_2_">
		<use xlink:href="#SVGID_1_"  style="overflow:visible;"/>
	</clipPath>
	<g class="st0">
		<g>
			<path class="st1" d="M96,60.5c-43.5,0-84.7-7.4-115.9-20.8c-34.8-15-54-36.3-54-60c0-23.7,19.2-45.1,54-60
				C11.3-93.8,52.5-101.2,96-101.2s84.7,7.4,115.9,20.8c34.8,15,54,36.3,54,60c0,23.7-19.2,45.1-54,60
				C180.7,53.1,139.5,60.5,96,60.5z M96-73.9c-39.9,0-77.2,6.6-105.1,18.6c-23.5,10.1-37.5,23.2-37.5,35c0,25.3,61,53.6,142.6,53.6
				c39.9,0,77.2-6.6,105.1-18.6c23.5-10.1,37.5-23.2,37.5-35C238.6-45.6,177.6-73.9,96-73.9z"/>
			<path class="st2" d="M115.7,65.8c-6,0-11.7,1.9-15.7,5.1V53.8h-8V71c-4-3.2-9.7-5.1-15.7-5.1c-15.2,0-27.4,12.4-27.4,27.6
				c0,35.7,47,52.8,47,52.8s47.1-17.1,47.1-52.8C143.1,78.2,130.9,65.8,115.7,65.8z"/>
			<path class="st2" d="M96,56.8c-43.5,0-84.7-7.4-115.9-20.8c-34.8-15-54-36.3-54-60c0-23.7,19.2-45.1,54-60
				C11.3-97.5,52.5-104.9,96-104.9s84.7,7.4,115.9,20.8c34.8,15,54,36.3,54,60c0,23.7-19.2,45.1-54,60
				C180.7,49.4,139.5,56.8,96,56.8z M96-77.6C56.1-77.6,18.8-71-9.1-59.1C-32.6-49-46.6-35.9-46.6-24c0,25.3,61,53.6,142.6,53.6
				c39.9,0,77.2-6.6,105.1-18.6c23.5-10.1,37.5-23.2,37.5-35C238.6-49.3,177.6-77.6,96-77.6z"/>
			<circle class="st3" cx="42.4" cy="40.5" r="3.6"/>
			<circle class="st3" cx="69.7" cy="44.1" r="3.6"/>
			<circle class="st3" cx="96" cy="45.9" r="3.6"/>
			<circle class="st3" cx="125.1" cy="44.1" r="3.6"/>
			<circle class="st3" cx="149.6" cy="40.5" r="3.6"/>
		</g>
		<circle class="st3" cx="117.3" cy="84.5" r="6.8"/>
	</g>
</g>
</svg>
