<?xml version="1.0" encoding="utf-8"?>
<!-- Generator: Adobe Illustrator 21.0.1, SVG Export Plug-In . SVG Version: 6.00 Build 0)  -->
<svg version="1.1" id="Layer_1" xmlns="http://www.w3.org/2000/svg" xmlns:xlink="http://www.w3.org/1999/xlink" x="0px" y="0px"
	 viewBox="0 0 192 192" style="enable-background:new 0 0 192 192;" xml:space="preserve">
<style type="text/css">
	.st0{fill:#FFFFFF;}
	.st1{fill:#A29F9D;}
	.st2{fill:#EF7648;}
</style>
<g>
	<circle class="st0" cx="96" cy="96" r="96"/>
	<path class="st1" d="M158.8,123.2c0,0,0.1-1,0.1-1.1V80.7c0-3.6-2.9-6.6-6.5-6.6h-0.5c-3.6,0-6,3-6,6.6v20.4h-5V41.6
		c0-3.6-3.1-6.4-6.6-6.4h-0.5c-3.6,0-5.9,2.8-5.9,6.4v59.6h-6V31.9c0-3.6-2.2-5.8-5.8-5.8h-0.5c-3.6,0-5.8,2.2-5.8,5.8v69.2h-6V41.6
		c0-3.6-2.3-6.4-5.9-6.4h-0.5c-3.6,0-6.7,2.8-6.7,6.4v59.6h-5V60.3c0-3.6-2.4-6.1-6-6.1h-0.5c-3.6,0-6.6,2.5-6.6,6.1V122
		c0,0.1,0.1,1.1,0.1,1.1h0c0,24,19.2,43,43,43S158.9,147.2,158.8,123.2L158.8,123.2z"/>
	<g>
		<path class="st2" d="M99.9,139.6l-7.5,7.5c-10.5,10.5-27.6,10.4-38.1-0.1l-7.5-7.5c-10.5-10.5-10.4-27.6,0.1-38.1l7.5-7.5
			C64.9,83.4,82,83.5,92.5,93.9l7.5,7.5C110.4,112,110.4,129.1,99.9,139.6z"/>
		<ellipse transform="matrix(0.9835 -0.181 0.181 0.9835 -13.0188 8.3337)" class="st2" cx="39.1" cy="75.5" rx="15.3" ry="15.3"/>
		<ellipse transform="matrix(0.9835 -0.181 0.181 0.9835 -9.8948 14.2111)" class="st2" cx="72.9" cy="61.3" rx="15.3" ry="15.3"/>
		<ellipse transform="matrix(0.9835 -0.181 0.181 0.9835 -11.8253 20.5436)" class="st2" cx="106.6" cy="75" rx="15.3" ry="15.3"/>
	</g>
</g>
</svg>
