<?xml version="1.0" encoding="utf-8"?>
<!-- Generator: Adobe Illustrator 21.0.1, SVG Export Plug-In . SVG Version: 6.00 Build 0)  -->
<svg version="1.1" id="Layer_1" xmlns="http://www.w3.org/2000/svg" xmlns:xlink="http://www.w3.org/1999/xlink" x="0px" y="0px"
	 viewBox="0 0 660 125" style="enable-background:new 0 0 660 125;" xml:space="preserve">
<style type="text/css">
	.st0{fill:#8A5DA3;}
</style>
<g>
	<g>
		<path class="st0" d="M329.6,39.4C282.3,39.4,244,78,244,125h8.8c0-42,34.4-76.8,76.8-76.8S406.4,83,406.4,125h8.8
			C415.2,78,376.8,39.4,329.6,39.4z"/>
		<path class="st0" d="M328.1,100.6l-23.3-2.9l-14.2,18.8l3.6,8.5h41l2-2.7L328.1,100.6z M313.8,120c-2.9,0-5.3-2.4-5.3-5.3
			c0-2.9,2.4-5.3,5.3-5.3s5.3,2.4,5.3,5.3C319.1,117.6,316.7,120,313.8,120z"/>
		<circle class="st0" cx="352.5" cy="114.7" r="5.3"/>
		<path class="st0" d="M269.8,67.2c-3.3-13.2-8.3-21.6-11.5-26c-4.8,9.5-10.7,13.2-15.2,14.7c-6.3,2-13.3,0.8-19.8-3.4
			c-8-5.2-11.7-16.9-8.6-27.2c3.5-11.7,14.4-18.7,29.3-18.7c14,0,26.6,8.5,36.4,24.7c7.2,11.8,9.8,23.5,9.9,23.9l-7.1,1.8v0l0,0
			c0-0.6-11.6-43.6-39.8-43.6c-11.9,0-19.9,5-22.5,13.8c-2.2,7.4,0.5,16.1,5.9,19.6c4.8,3.1,9.8,4.1,14.1,2.7
			c5.4-1.7,10-7.2,13.2-15.7l1.8-4.6l3.7,3.3c0.4,0.4,11,10.1,16.8,33.2L269.8,67.2z"/>
		<path class="st0" d="M390.8,67.2l-6.6-1.6c5.8-23.1,16.3-32.8,16.8-33.2l3.7-3.3l1.8,4.6c3.2,8.6,7.8,14,13.2,15.7
			c4.3,1.4,9.3,0.4,14-2.7c5.5-3.6,8-12.2,5.8-19.6c-2.6-8.8-10.9-13.8-22.8-13.8c-28.3,0-40.3,43.2-40.4,43.6l-6.5-1.8
			c0.1-0.5,3.3-12.1,10.5-23.9c9.8-16.2,22.4-24.7,36.4-24.7c14.9,0,25.8,7,29.3,18.7c3.1,10.3-0.6,22-8.6,27.2
			c-6.5,4.3-13.6,5.5-19.8,3.4c-4.4-1.4-10.4-5.2-15.2-14.7C399.1,45.6,394.2,54,390.8,67.2z"/>
	</g>
	<g>
		<path class="st0" d="M565.8,40.9c-46.8,0-84.7,37.1-85.5,84.1h8.8c0.8-42,34.9-75.3,76.8-75.3s76,33.3,76.8,75.3h8.8
			C650.5,78,612.6,40.9,565.8,40.9z"/>
		<path class="st0" d="M604.1,109.9c-2.2,0-3.9-1.7-3.9-3.9c0-2.1,1.7-3.9,3.9-3.9c2.2,0,3.9,1.7,3.9,3.9
			C608,108.2,606.3,109.9,604.1,109.9z M604.1,103.4c-1.5,0-2.6,1.2-2.6,2.6c0,1.5,1.2,2.6,2.6,2.6c1.5,0,2.6-1.2,2.6-2.6
			C606.8,104.6,605.6,103.4,604.1,103.4z"/>
		<path class="st0" d="M593.2,94.8c-3.8,0-6.9-3.1-6.9-6.9c0-3.8,3.1-6.9,6.9-6.9c3.8,0,6.9,3.1,6.9,6.9
			C600.1,91.7,597,94.8,593.2,94.8z M593.2,82.8c-2.8,0-5,2.3-5,5c0,2.8,2.3,5,5,5c2.8,0,5-2.3,5-5C598.3,85.1,596,82.8,593.2,82.8z
			"/>
		<path class="st0" d="M568.3,82.2c-6.5,0-11.7-5.2-11.7-11.7c0-6.5,5.2-11.7,11.7-11.7S580,64.1,580,70.5
			C580,77,574.8,82.2,568.3,82.2z M568.3,61.4c-5.1,0-9.2,4.1-9.2,9.2s4.1,9.2,9.2,9.2c5.1,0,9.2-4.1,9.2-9.2S573.4,61.4,568.3,61.4
			z"/>
		<path class="st0" d="M591,125L591,125c0-2.7-1.9-4.9-4.5-4.9c-2.6,0-4.5,2.2-4.5,4.8v0.1H591z"/>
		<polygon class="st0" points="582.4,112.3 564,101.7 564,110.6 560.1,110.6 560.1,95 584.3,109 		"/>
		<polygon class="st0" points="528,125 528,117.5 540.3,125 547.5,125 547.7,124.8 524,110.9 524,125 		"/>
		<path class="st0" d="M548.6,125c1.4-7,12.5-12.3,25.5-12.3c13,0,24,5.3,25.5,12.3h4.8c-1.2-10-14.1-17.1-30.3-17.1
			S545,115,543.8,125H548.6z"/>
	</g>
	<g>
		<path class="st0" d="M94.2,39.4C47,39.4,8.7,78,8.7,125h8.8c0-42,34.4-76.8,76.8-76.8S171.1,83,171.1,125h8.8
			C179.8,78,141.5,39.4,94.2,39.4z"/>
		<circle class="st0" cx="59.6" cy="108.3" r="11.9"/>
		<circle class="st0" cx="130.2" cy="108.3" r="11.9"/>
		<path class="st0" d="M86.5,125c0-4.3,3.5-7.7,7.7-7.7s7.7,3.5,7.7,7.7H86.5z"/>
		<g>
			<path class="st0" d="M37.5,73.3C37.5,73.3,37.5,73.2,37.5,73.3C37.5,73.2,37.5,73.3,37.5,73.3z"/>
			<path class="st0" d="M30.4,82.3C30.4,82.3,30.4,82.3,30.4,82.3C30.4,82.3,30.4,82.3,30.4,82.3z"/>
			<path class="st0" d="M21.5,96.7l-3.9-51l31.8,15.3c2.4-1.7,4.9-3.2,7.5-4.6l-48-23l6.7,88.2l0.9-0.6c0.3-8.6,2.1-16.8,5-24.4
				C21.5,96.6,21.5,96.6,21.5,96.7z"/>
			<path class="st0" d="M28.8,84.9c0.1-0.1,0.1-0.2,0.2-0.3C28.9,84.7,28.8,84.8,28.8,84.9z"/>
			<path class="st0" d="M27.3,87.3c0.1-0.1,0.1-0.2,0.2-0.4C27.4,87.1,27.4,87.2,27.3,87.3z"/>
			<path class="st0" d="M26,89.8c0-0.1,0.1-0.1,0.1-0.2C26.1,89.6,26,89.7,26,89.8z"/>
		</g>
		<g>
			<path class="st0" d="M160.9,86.8c0.1,0.2,0.2,0.3,0.3,0.5C161.1,87.1,161,87,160.9,86.8z"/>
			<path class="st0" d="M162.2,89.3c0.1,0.2,0.2,0.3,0.3,0.5C162.4,89.6,162.3,89.4,162.2,89.3z"/>
			<path class="st0" d="M131.5,56.3c2.6,1.4,5.1,3,7.6,4.7c0,0,0,0,0,0l32.1-15.2L167,96.5c0,0,0,0,0-0.1c3,7.7,4.7,16,5.1,24.7
				l0.6,0.4l7.3-88.2L131.5,56.3z"/>
			<path class="st0" d="M163.6,91.9c0.1,0.1,0.1,0.2,0.2,0.3C163.7,92.1,163.6,92,163.6,91.9z"/>
			<path class="st0" d="M159.5,84.4c0.1,0.1,0.1,0.2,0.2,0.4C159.6,84.7,159.6,84.6,159.5,84.4z"/>
			<path class="st0" d="M150.8,73.1c0.1,0.1,0.1,0.1,0.2,0.2C151,73.2,150.9,73.1,150.8,73.1z"/>
			<path class="st0" d="M149,71.2c0,0-0.1-0.1-0.1-0.1C149,71.1,149,71.1,149,71.2z"/>
			<path class="st0" d="M158,82.2C158,82.2,158,82.2,158,82.2C158,82.2,158,82.2,158,82.2z"/>
			<path class="st0" d="M152.8,75.2c0,0,0.1,0.1,0.1,0.1C152.8,75.3,152.8,75.3,152.8,75.2z"/>
		</g>
	</g>
</g>
</svg>
