<?xml version="1.0" encoding="utf-8"?>
<!-- Generator: Adobe Illustrator 21.0.1, SVG Export Plug-In . SVG Version: 6.00 Build 0)  -->
<svg version="1.1" id="Layer_1" xmlns="http://www.w3.org/2000/svg" xmlns:xlink="http://www.w3.org/1999/xlink" x="0px" y="0px"
	 viewBox="0 0 212 36" style="enable-background:new 0 0 212 36;" xml:space="preserve">
<style type="text/css">
	.st0{fill:#FFFFFF;}
</style>
<g>
	<path class="st0" d="M1.1,11.3c1.2-1,0-2.9,1.4-3.8c1.2-0.8,2.6-1,3.4,0c0.6,0.6,0.2,2,0.6,2.2c3.6,0.4,8.7,1.6,8.3,5.9
		c-0.6,5.8-6.8,5.4-10.6,6.8c-0.8,4-0.5,5.7,0.6,9.7c0,0.3,0.7,0.9,1,1.5c0.8,1.6-2,1.6-3.3,1.2c-1.6-0.6-1.8-2.8-2-4.6
		c-0.8-5.9,0.4-11.3,1-16.9C1.6,12.5,0.7,11.9,1.1,11.3z M5.2,18.7c1.6,0.7,5.1-0.5,5.5-3.5c0.2-1.3-0.7-1.7-1.5-1.9
		c-1-0.4-2.4-0.6-3,0C5,14.5,4.2,18.2,5.2,18.7z"/>
	<path class="st0" d="M23.2,8.9c3.4,0.5,6.6,3.8,6.5,7.5c-0.7,2.1-5.6,3.9-7.3,5.5c-0.2,0-1,0.5-0.7,0.9c1.5,2.7,4.4,1.5,6.8,0.2
		c1.6,1.1,0.7,3.8-1.1,4c-2,0.3-4.1,0.8-6.2-0.1c-4.4-2-5.4-7-5.5-11.2C15.7,11.5,18.9,8.3,23.2,8.9z M25.3,15.3
		c1-2.2-2.7-3.3-4.4-2.4c-1.9,1-1.4,5.1-0.3,5.2C22.6,18,24.7,17.4,25.3,15.3z"/>
	<path class="st0" d="M37.7,4.1C38,2,40.7,2,42.4,3c0.2,0.2,0.4,0.9,0.2,1.5c-1.3,2.8-1.7,6-1.7,9c2.4-0.2,7-1.3,6.2,1.5
		c-0.7,2.2-4.6,1.8-7,1.8c-0.4,2.8,1.1,14.9,0.9,17.6c0,0.8-0.7,1.5-1.5,1.5c-1.1,0-1.5-0.3-1.8-1.4C36.7,32,37,19.2,35.7,16.9
		c-1.7,1.3-4.8,2.3-5.7,0c-0.2-0.6,0.4-1.5,1.1-1.9c1.7-0.8,4-0.6,5.1-1.9c0.8-1.1,0.6-3,0.8-4.5C37.3,7,37.6,5.6,37.7,4.1z"/>
	<path class="st0" d="M51.5,10c2.4-2.2,5.5-5.3,8.9-3.8c0.5,0.2,0.9,0.8,0.6,1.7c-0.9,2.7-3.4,2.5-5.5,4c-1.8,1.4-3.3,3.1-3.4,5.3
		c-0.1,1.2,0.1,2.9,0.9,4.1c0.9,1.5,2.5,1.6,4,2.2c2.3,0.9,3.9-2.3,5.8-2.4c1.9-0.1,0.7,2.6,0.3,3.3c-2.2,3.4-6.3,2.9-9.7,1.9
		c-4.1-1.2-6.2-5.3-5.5-9.6C48.3,13.9,49.5,11.7,51.5,10z"/>
	<path class="st0" d="M72.2,8.9c3.4,0.5,6.6,3.8,6.5,7.5c-0.7,2.1-5.6,3.9-7.3,5.5c-0.2,0-1,0.5-0.7,0.9c1.5,2.7,4.4,1.5,6.8,0.2
		c1.6,1.1,0.7,3.8-1.1,4c-2,0.3-4.1,0.8-6.2-0.1c-4.4-2-5.4-7-5.5-11.2C64.7,11.5,67.9,8.3,72.2,8.9z M74.3,15.3
		c1-2.2-2.7-3.3-4.4-2.4c-1.9,1-1.4,5.1-0.3,5.2C71.7,18,73.7,17.4,74.3,15.3z"/>
	<path class="st0" d="M80.9,11.4c0.5-1.3,3-1.3,3.5,0.2c0.3,1.1-0.4,2.2-0.4,3.3c0.2,0.2,0.4,0.7,0.4,0.5c1.5-2.4,2.8-5.2,5.9-4.3
		c2.4,3.9,2.2,8.8,2.4,13.2c0.2,0.7,0.2,2-0.6,2.2c-1.1,0.3-2.8,0.7-3-0.4c-0.6-3.7-0.2-7.2-0.9-10.8c-2.2,2.4-2.5,5.8-4.3,8.8
		c-0.7,1.1-2.6,1.3-3.1,0c-0.6-1.7-0.2-3.7-0.2-5.6C80.7,16.3,80.1,13.4,80.9,11.4z"/>
	<path class="st0" d="M102.6,4.1c0.2-2.1,3-2.1,4.7-1.1c0.2,0.2,0.4,0.9,0.2,1.5c-1.3,2.8-1.7,6-1.7,9c2.4-0.2,7-1.3,6.2,1.5
		c-0.7,2.2-4.6,1.8-7,1.8c-0.4,2.8,1.1,14.9,0.9,17.6c0,0.8-0.7,1.5-1.5,1.5c-1.1,0-1.5-0.3-1.8-1.4c-0.9-2.5-0.7-15.3-1.9-17.6
		c-1.7,1.3-4.8,2.3-5.7,0c-0.2-0.6,0.4-1.5,1.1-1.9c1.7-0.8,4-0.6,5.1-1.9c0.8-1.1,0.6-3,0.8-4.5C102.2,7,102.4,5.6,102.6,4.1z"/>
	<path class="st0" d="M113.6,8.2c2.2-2,4.8,0.7,4.4,3.5c2.6-0.4,3.3-4.2,6.4-3.3c1.1,0.4,2.5,0.9,1.5,2.2c-1.8,2.5-4.4,3.6-6.2,6.2
		c-0.6,0.9-0.2,2.2-0.7,3.1c-0.4,0.7-0.4,1.8,0.4,2.9c0.9,1.1,0.7,3.3-0.4,4.4c-0.9,1.3-2.9,1.3-3.7,0.2c-0.7-0.4-0.7-1.1-0.7-2
		c0.2-3.5-0.2-7.3-0.7-10.8C113.8,12.4,111.6,9.9,113.6,8.2z"/>
	<path class="st0" d="M136.2,27.6c-3.1-0.6-6.6-0.4-8.4-3.3c-1.2-1.6-0.7-4.7,0.4-6.2c3.6-4.8,9.8-3.3,9.9-3.4
		c0.4-0.6,0.7-2.6-0.3-2.8c-2.6-0.6-4.2,0.6-6.6,1.4c-1.8,0.6-2.2-2.9-1.8-3.3c3.2-2.2,9.7-3.4,11.7,0.7c1.8,3.7-0.4,7.5-0.7,11.6
		c-0.2,2.7-0.4,8.5-2.9,6.9C136.9,28.7,136.8,27.6,136.2,27.6z M137.4,17.8c-2.6,1-7,0.2-7.1,4c0,1.9,6.2,2.9,6.5,2.1
		C137.2,21.6,138.4,20.1,137.4,17.8z"/>
	<path class="st0" d="M144.1,1.5c0.8-1.7,4.1-2.2,4.3,0.4c0,0.4-0.2,1.3-0.2,1.8c0,3.1,0.2,6.4,0,9.4c-0.3,4.8,1.1,9.7-0.9,14
		c-0.6,1.4-2.2,1.3-3.4,0.7c-0.7-0.4-0.9-1.5-0.7-2.4c1.3-4.4,0.9-8.8,1.1-13.3C144.5,8.5,142.6,4.6,144.1,1.5z"/>
	<path class="st0" d="M156.2,27.6c-2.4,1.4-4.1-0.9-4.4-2.9c-0.4-3.3,3.2-3.9,4.8-2.8C157.8,22.8,158.1,26.5,156.2,27.6z"/>
	<path class="st0" d="M161.8,10c2.4-2.2,5.5-5.3,8.9-3.8c0.5,0.2,0.9,0.8,0.6,1.7c-0.9,2.7-3.4,2.5-5.5,4c-1.8,1.4-3.3,3.1-3.4,5.3
		c-0.1,1.2,0.1,2.9,0.9,4.1c0.9,1.5,2.5,1.6,4,2.2c2.3,0.9,3.9-2.3,5.8-2.4c1.9-0.1,0.7,2.6,0.3,3.3c-2.2,3.4-6.3,2.9-9.7,1.9
		c-4.1-1.2-6.2-5.3-5.5-9.6C158.6,13.9,159.9,11.7,161.8,10z"/>
	<path class="st0" d="M175.5,13.7c0.7-2.5,2.3-3.7,2.8-5c1.1-2.4,4.1-1.7,5.8,0.2c1.1,1.3,1.8,2.8,2.2,4.3c0.9,3.5-0.7,6.4-3,8.9
		c-1,1-3.3,1.1-4.4,0.4C175.9,20.7,174.6,17,175.5,13.7z M181.4,12c-1-1-5.7,5.1-1.1,6.1C183.4,18.8,183.7,14.6,181.4,12z"/>
	<path class="st0" d="M191.4,10c2.6,0.7,0,4.1,1.3,5.9c2.6-2.4,3.1-8.3,7.7-6.6c0.2,0.2,0.7,0.7,0.9,0.8c0.4,1.8,0.2,3.5,0.9,5.1
		c2.2-2.4,4.6-6.3,8.3-4.8c1.1,0.7,0.7,2.2,0.9,3.3c0.7,5.2,0.8,10.5-1.1,15.5c-0.4,1.5-2.6,1.7-4.2,0.8c-0.2,0-0.4-0.9-0.2-1.5
		c1.5-4.2,1.5-8.8,0.9-13.1c0-0.7-0.9,0-1.1,0.4c-1.7,2.8-3,5.9-4.1,8.9c-0.7,1.3-3.5,2.6-4.6,0.9c-1.3-2.6,0.9-6.1-0.2-9.2
		c-1.8,3-2.6,6.3-4.6,9.2c-0.9,1.3-3.4,1.3-4,0c-1.2-3.1-0.2-7-0.7-10.5C187.1,12.3,187.9,9,191.4,10z"/>
</g>
</svg>
